<mxfile host="app.diagrams.net" agent="Mozilla/5.0 (Windows NT 10.0; Win64; x64; rv:135.0) Gecko/20100101 Firefox/135.0" version="26.0.16">
  <diagram name="Pagina-1" id="ewVl2hxJicjZgezmGX6A">
    <mxGraphModel dx="1050" dy="558" grid="1" gridSize="10" guides="1" tooltips="1" connect="1" arrows="1" fold="1" page="1" pageScale="1" pageWidth="827" pageHeight="1169" math="0" shadow="0">
      <root>
        <mxCell id="0" />
        <mxCell id="1" parent="0" />
        <mxCell id="4vdfQVHjJ7Xwn2imNQU4-15" value="STUDENT" style="whiteSpace=wrap;html=1;align=center;" vertex="1" parent="1">
          <mxGeometry x="40" y="80" width="100" height="40" as="geometry" />
        </mxCell>
        <mxCell id="4vdfQVHjJ7Xwn2imNQU4-16" value="DOCENT" style="whiteSpace=wrap;html=1;align=center;" vertex="1" parent="1">
          <mxGeometry x="40" y="120" width="100" height="40" as="geometry" />
        </mxCell>
        <mxCell id="4vdfQVHjJ7Xwn2imNQU4-17" value="PERSOON" style="whiteSpace=wrap;html=1;align=center;" vertex="1" parent="1">
          <mxGeometry x="40" y="160" width="100" height="40" as="geometry" />
        </mxCell>
        <mxCell id="4vdfQVHjJ7Xwn2imNQU4-32" value="" style="rounded=0;whiteSpace=wrap;html=1;" vertex="1" parent="1">
          <mxGeometry x="40" y="440" width="360" height="240" as="geometry" />
        </mxCell>
        <mxCell id="4vdfQVHjJ7Xwn2imNQU4-33" value="&lt;i&gt;Attributenlijst:&lt;/i&gt;" style="text;html=1;align=center;verticalAlign=middle;whiteSpace=wrap;rounded=0;" vertex="1" parent="1">
          <mxGeometry x="40" y="440" width="100" height="30" as="geometry" />
        </mxCell>
        <mxCell id="4vdfQVHjJ7Xwn2imNQU4-34" value="" style="line;strokeWidth=1;rotatable=0;dashed=0;labelPosition=right;align=left;verticalAlign=middle;spacingTop=0;spacingLeft=6;points=[];portConstraint=eastwest;" vertex="1" parent="1">
          <mxGeometry x="40" y="460" width="360" height="10" as="geometry" />
        </mxCell>
        <mxCell id="4vdfQVHjJ7Xwn2imNQU4-35" value="&lt;div&gt;STUDENT: studentnummer,&lt;/div&gt;&lt;div&gt;DOCENT:&lt;/div&gt;&lt;div&gt;PERSOON:&lt;/div&gt;&lt;div&gt;ACTIVITEIT:&lt;/div&gt;&lt;div&gt;VOORRAADADMINISTRATIE:&lt;/div&gt;" style="text;html=1;align=left;verticalAlign=top;whiteSpace=wrap;rounded=0;fillColor=none;" vertex="1" parent="1">
          <mxGeometry x="40" y="470" width="360" height="210" as="geometry" />
        </mxCell>
        <mxCell id="4vdfQVHjJ7Xwn2imNQU4-36" value="ACTIVITEIT" style="whiteSpace=wrap;html=1;align=center;" vertex="1" parent="1">
          <mxGeometry x="40" y="200" width="100" height="40" as="geometry" />
        </mxCell>
        <mxCell id="4vdfQVHjJ7Xwn2imNQU4-37" value="VOORRAADADMINISTRATIE" style="whiteSpace=wrap;html=1;align=center;" vertex="1" parent="1">
          <mxGeometry x="40" y="240" width="170" height="40" as="geometry" />
        </mxCell>
        <mxCell id="4vdfQVHjJ7Xwn2imNQU4-38" value="Entity" style="whiteSpace=wrap;html=1;align=center;" vertex="1" parent="1">
          <mxGeometry x="40" y="280" width="100" height="40" as="geometry" />
        </mxCell>
        <mxCell id="4vdfQVHjJ7Xwn2imNQU4-39" value="Entity" style="whiteSpace=wrap;html=1;align=center;" vertex="1" parent="1">
          <mxGeometry x="40" y="320" width="100" height="40" as="geometry" />
        </mxCell>
        <mxCell id="4vdfQVHjJ7Xwn2imNQU4-40" value="Entity" style="whiteSpace=wrap;html=1;align=center;" vertex="1" parent="1">
          <mxGeometry x="40" y="360" width="100" height="40" as="geometry" />
        </mxCell>
      </root>
    </mxGraphModel>
  </diagram>
</mxfile>
